/* XPM */
static char * 64_wall_up_xpm[] = {
"64 80 5 1",
" 	c #222222",
".	c #AA8D7A",
"+	c #483B3A",
"@	c #D3BFA9",
"#	c #775C55",
"                                                                ",
"                                                                ",
"                                                                ",
"                                                                ",
"........    ++++....................    ............    ........",
"........    ++++....................    ............    ........",
"........    ++++....................    ............    ........",
"........    ++++....................    ............    ........",
"........    ........................    ............    ........",
"........    ........................    ............    ........",
"........    ........................    ............    ........",
"........    ........................    ............    ........",
"@@@@@@@@    @@@@@@@@@@@@@@@@++++@@@@    @@@@@@@@@@@@    @@@@@@@@",
"@@@@@@@@    @@@@@@@@@@@@@@@@++++@@@@    @@@@@@@@@@@@    @@@@@@@@",
"@@@@@@@@    @@@@@@@@@@@@@@@@++++@@@@    @@@@@@@@@@@@    @@@@@@@@",
"@@@@@@@@    @@@@@@@@@@@@@@@@++++@@@@    @@@@@@@@@@@@    @@@@@@@@",
"########    ########################    ############    ########",
"########    ########################    ############    ########",
"########    ########################    ############    ########",
"########    ########################    ############    ########",
"++++++++    ++++++++++++++++++++++++    ++++++++++++    ++++++++",
"++++++++    ++++++++++++++++++++++++    ++++++++++++    ++++++++",
"++++++++    ++++++++++++++++++++++++    ++++++++++++    ++++++++",
"++++++++    ++++++++++++++++++++++++    ++++++++++++    ++++++++",
"++++++++    ++++++++    ++++++++++++    ++++++++        ++++++++",
"++++++++    ++++++++    ++++++++++++    ++++++++        ++++++++",
"++++++++    ++++++++    ++++++++++++    ++++++++        ++++++++",
"++++++++    ++++++++    ++++++++++++    ++++++++        ++++++++",
"                                                                ",
"                                                                ",
"                                                                ",
"                                                                ",
"####    ########    ########################    ################",
"####    ########    ########################    ################",
"####    ########    ########################    ################",
"####    ########    ########################    ################",
"++++++++++++++++    ++++++++++++++++++++++++    ++++++++++++++++",
"++++++++++++++++    ++++++++++++++++++++++++    ++++++++++++++++",
"++++++++++++++++    ++++++++++++++++++++++++    ++++++++++++++++",
"++++++++++++++++    ++++++++++++++++++++++++    ++++++++++++++++",
"++++++++++++++++    ++++++++++++++++++++++++    ++++    ++++++++",
"++++++++++++++++    ++++++++++++++++++++++++    ++++    ++++++++",
"++++++++++++++++    ++++++++++++++++++++++++    ++++    ++++++++",
"++++++++++++++++    ++++++++++++++++++++++++    ++++    ++++++++",
"                                                                ",
"                                                                ",
"                                                                ",
"                                                                ",
"############################    ########################        ",
"############################    ########################        ",
"############################    ########################        ",
"############################    ########################        ",
"++++++++++++++++++++++++++++    ++++++++++++++++++++++++    ++++",
"++++++++++++++++++++++++++++    ++++++++++++++++++++++++    ++++",
"++++++++++++++++++++++++++++    ++++++++++++++++++++++++    ++++",
"++++++++++++++++++++++++++++    ++++++++++++++++++++++++    ++++",
"++++++++++++    ++++++++++++    ++++++++++++++++++++++++    ++++",
"++++++++++++    ++++++++++++    ++++++++++++++++++++++++    ++++",
"++++++++++++    ++++++++++++    ++++++++++++++++++++++++    ++++",
"++++++++++++    ++++++++++++    ++++++++++++++++++++++++    ++++",
"                                                                ",
"                                                                ",
"                                                                ",
"                                                                ",
"########    ############################    ####################",
"########    ############################    ####################",
"########    ############################    ####################",
"########    ############################    ####################",
"++++++++    ++++++++++++++++++++++++++++    ++++++++++++++++++++",
"++++++++    ++++++++++++++++++++++++++++    ++++++++++++++++++++",
"++++++++    ++++++++++++++++++++++++++++    ++++++++++++++++++++",
"++++++++    ++++++++++++++++++++++++++++    ++++++++++++++++++++",
"++++++++    ++++++++++++++++++++    ++++    ++++    ++++++++++++",
"++++++++    ++++++++++++++++++++    ++++    ++++    ++++++++++++",
"++++++++    ++++++++++++++++++++    ++++    ++++    ++++++++++++",
"++++++++    ++++++++++++++++++++    ++++    ++++    ++++++++++++",
"                                                                ",
"                                                                ",
"                                                                ",
"                                                                "};
