/* XPM */
static char * 32_floor_1_xpm[] = {
"32 32 3 1",
" 	c #222222",
".	c #483B3A",
"+	c #775C55",
"      ..        ......  ..      ",
"      ..        ......  ..      ",
"  ............................++",
"  ............................++",
"..............................++",
"..............................++",
"..............................++",
"..............................++",
"  ............................++",
"  ............................++",
"..............................++",
"..............................++",
"  ..............................",
"  ..............................",
"  ............................++",
"  ............................++",
"  ..............................",
"  ..............................",
"..............................++",
"..............................++",
"..............................++",
"..............................++",
"  ..............................",
"  ..............................",
"  ..............................",
"  ..............................",
"  ............................++",
"  ............................++",
"  ............................++",
"  ............................++",
"++++++....++..++++++++..++++++++",
"++++++....++..++++++++..++++++++"};
