/* XPM */
static char * 4_xpm[] = {
"28 28 3 1",
" 	c None",
".	c #FFFFFF",
"+	c #D9D9D9",
"........                    ",
"........                    ",
"........                    ",
"........                    ",
"........    ........        ",
"........    ........        ",
"........    ........        ",
"........    ........        ",
"........    ........        ",
"........    ........        ",
"........    ........        ",
"........    ........        ",
"............................",
"............................",
"............................",
"............................",
"............................",
"............................",
"............................",
"............................",
"            ........        ",
"            ........        ",
"            ........        ",
"            ........        ",
"            ++++++++        ",
"            ++++++++        ",
"            ++++++++        ",
"            ++++++++        "};
