/* XPM */
static char * 5_xpm[] = {
"28 28 3 1",
" 	c None",
".	c #FFFFFF",
"+	c #D9D9D9",
"............................",
"............................",
"............................",
"............................",
"............................",
"............................",
"............................",
"............................",
"........                    ",
"........                    ",
"........                    ",
"........                    ",
"............................",
"............................",
"............................",
"............................",
"                    ........",
"                    ........",
"                    ........",
"                    ........",
"............................",
"............................",
"............................",
"............................",
"++++++++++++++++++++++++++++",
"++++++++++++++++++++++++++++",
"++++++++++++++++++++++++++++",
"++++++++++++++++++++++++++++"};
