/* XPM */
static char * 6_xpm[] = {
"28 28 3 1",
" 	c None",
".	c #FFFFFF",
"+	c #D9D9D9",
"............................",
"............................",
"............................",
"............................",
"............................",
"............................",
"............................",
"............................",
"........                    ",
"........                    ",
"........                    ",
"........                    ",
"............................",
"............................",
"............................",
"............................",
"........            ........",
"........            ........",
"........            ........",
"........            ........",
"............................",
"............................",
"............................",
"............................",
"++++++++++++++++++++++++++++",
"++++++++++++++++++++++++++++",
"++++++++++++++++++++++++++++",
"++++++++++++++++++++++++++++"};
