/* XPM */
static char * 64_knight_idle_l2_xpm[] = {
"64 112 7 1",
" 	c None",
".	c #222222",
"+	c #DA4E38",
"@	c #EE8E2E",
"#	c #FDF7ED",
"$	c #72D6CE",
"%	c #417089",
"                                                                ",
"                                                                ",
"                                                                ",
"                                                                ",
"                                                                ",
"                                                                ",
"                                                                ",
"                                                                ",
"                                                                ",
"                                                                ",
"                                                                ",
"                                                                ",
"                                                                ",
"                                                                ",
"                                                                ",
"                                                                ",
"                                                                ",
"                                                                ",
"                                                                ",
"                                                                ",
"                                                                ",
"                                                                ",
"                                                                ",
"                                                                ",
"                                                                ",
"                                                                ",
"                                                                ",
"                                                                ",
"                                                                ",
"                                                                ",
"                                                                ",
"                                                                ",
"                                                        ....    ",
"                                                        ....    ",
"                                                        ....    ",
"                                                        ....    ",
"                                ........................++++....",
"                                ........................++++....",
"                                ........................++++....",
"                                ........................++++....",
"                            ....@@@@@@@@@@@@@@@@++++++++....    ",
"                            ....@@@@@@@@@@@@@@@@++++++++....    ",
"                            ....@@@@@@@@@@@@@@@@++++++++....    ",
"                            ....@@@@@@@@@@@@@@@@++++++++....    ",
"                        ....@@@@@@@@@@@@++++++++........        ",
"                        ....@@@@@@@@@@@@++++++++........        ",
"                        ....@@@@@@@@@@@@++++++++........        ",
"                        ....@@@@@@@@@@@@++++++++........        ",
"                        ....@@@@@@@@++++++++....                ",
"                        ....@@@@@@@@++++++++....                ",
"                        ....@@@@@@@@++++++++....                ",
"                        ....@@@@@@@@++++++++....                ",
"                            ....++++++++....                    ",
"                            ....++++++++....                    ",
"                            ....++++++++....                    ",
"                            ....++++++++....                    ",
"            ........................................            ",
"            ........................................            ",
"            ........................................            ",
"            ........................................            ",
"            ....########$$$$$$$$$$$$$$$$$$$$$$$$....            ",
"            ....########$$$$$$$$$$$$$$$$$$$$$$$$....            ",
"            ....########$$$$$$$$$$$$$$$$$$$$$$$$....            ",
"            ....########$$$$$$$$$$$$$$$$$$$$$$$$....            ",
"    ............%%%%%%%%%%%%%%%%%%%%%%%%$$$$$$$$....            ",
"    ............%%%%%%%%%%%%%%%%%%%%%%%%$$$$$$$$....            ",
"    ............%%%%%%%%%%%%%%%%%%%%%%%%$$$$$$$$....            ",
"    ............%%%%%%%%%%%%%%%%%%%%%%%%$$$$$$$$....            ",
"    ....########$$$$$$$$$$$$$$$$$$$$%%%%$$$$$$$$....            ",
"    ....########$$$$$$$$$$$$$$$$$$$$%%%%$$$$$$$$....            ",
"    ....########$$$$$$$$$$$$$$$$$$$$%%%%$$$$$$$$....            ",
"    ....########$$$$$$$$$$$$$$$$$$$$%%%%$$$$$$$$....            ",
"    ....####%%%%$$$$%%%%$$$$%%%%$$$$%%%%$$$$$$$$....            ",
"    ....####%%%%$$$$%%%%$$$$%%%%$$$$%%%%$$$$$$$$....            ",
"    ....####%%%%$$$$%%%%$$$$%%%%$$$$%%%%$$$$$$$$....            ",
"    ....####%%%%$$$$%%%%$$$$%%%%$$$$%%%%$$$$$$$$....            ",
"    ....####%%%%$$$$%%%%$$$$%%%%$$$$%%%%$$$$$$$$....            ",
"    ....####%%%%$$$$%%%%$$$$%%%%$$$$%%%%$$$$$$$$....            ",
"    ....####%%%%$$$$%%%%$$$$%%%%$$$$%%%%$$$$$$$$....            ",
"    ....####%%%%$$$$%%%%$$$$%%%%$$$$%%%%$$$$$$$$....            ",
"    ....####%%%%$$$$%%%%$$$$%%%%$$$$%%%%$$$$$$$$....            ",
"    ....####%%%%$$$$%%%%$$$$%%%%$$$$%%%%$$$$$$$$....            ",
"    ....####%%%%$$$$%%%%$$$$%%%%$$$$%%%%$$$$$$$$....            ",
"    ....####%%%%$$$$%%%%$$$$%%%%$$$$%%%%$$$$$$$$....            ",
"    ....########$$$$$$$$$$$$$$$$$$$$%%%%$$$$$$$$....            ",
"    ....########$$$$$$$$$$$$$$$$$$$$%%%%$$$$$$$$....            ",
"    ....########$$$$$$$$$$$$$$$$$$$$%%%%$$$$$$$$....            ",
"    ....########$$$$$$$$$$$$$$$$$$$$%%%%$$$$$$$$....            ",
"    ............%%%%%%%%%%%%%%%%%%%%%%%%$$$$$$$$....            ",
"    ............%%%%%%%%%%%%%%%%%%%%%%%%$$$$$$$$....            ",
"    ............%%%%%%%%%%%%%%%%%%%%%%%%$$$$$$$$....            ",
"    ............%%%%%%%%%%%%%%%%%%%%%%%%$$$$$$$$....            ",
"            ....####$$$$$$$$$$$$$$$$$$$$$$$$$$$$....            ",
"            ....####$$$$$$$$$$$$$$$$$$$$$$$$$$$$....            ",
"            ....####$$$$$$$$$$$$$$$$$$$$$$$$$$$$....            ",
"            ....####$$$$$$$$$$$$$$$$$$$$$$$$$$$$....            ",
"            ....$$$$%%%%%%%%%%%%%%%%%%%%%%%%%%%%....            ",
"            ....$$$$%%%%%%%%%%%%%%%%%%%%%%%%%%%%....            ",
"            ....$$$$%%%%%%%%%%%%%%%%%%%%%%%%%%%%....            ",
"            ....$$$$%%%%%%%%%%%%%%%%%%%%%%%%%%%%....            ",
"            ....####$$$$$$$$$$$$$$$$$$$$$$$$$$$$....            ",
"            ....####$$$$$$$$$$$$$$$$$$$$$$$$$$$$....            ",
"            ....####$$$$$$$$$$$$$$$$$$$$$$$$$$$$....            ",
"            ....####$$$$$$$$$$$$$$$$$$$$$$$$$$$$....            ",
"        ....%%%%%%%%$$$$$$$$$$$$$$$$$$$$$$$$%%%%%%%%....        ",
"        ....%%%%%%%%$$$$$$$$$$$$$$$$$$$$$$$$%%%%%%%%....        ",
"        ....%%%%%%%%$$$$$$$$$$$$$$$$$$$$$$$$%%%%%%%%....        ",
"        ....%%%%%%%%$$$$$$$$$$$$$$$$$$$$$$$$%%%%%%%%....        ",
"        ................................................        ",
"        ................................................        ",
"        ................................................        ",
"        ................................................        "};
