/* XPM */
static char * 64_wall_side_xpm[] = {
"20 64 3 1",
" 	c #222222",
".	c #AA8D7A",
"+	c #D3BFA9",
"    ............    ",
"    ............    ",
"    ............    ",
"    ............    ",
"    ++++++++++++    ",
"    ++++++++++++    ",
"    ++++++++++++    ",
"    ++++++++++++    ",
"                    ",
"                    ",
"                    ",
"                    ",
"    ............    ",
"    ............    ",
"    ............    ",
"    ............    ",
"    ............    ",
"    ............    ",
"    ............    ",
"    ............    ",
"    ............    ",
"    ............    ",
"    ............    ",
"    ............    ",
"    ............    ",
"    ............    ",
"    ............    ",
"    ............    ",
"    ............    ",
"    ............    ",
"    ............    ",
"    ............    ",
"    ++++++++++++    ",
"    ++++++++++++    ",
"    ++++++++++++    ",
"    ++++++++++++    ",
"                    ",
"                    ",
"                    ",
"                    ",
"    ............    ",
"    ............    ",
"    ............    ",
"    ............    ",
"    ............    ",
"    ............    ",
"    ............    ",
"    ............    ",
"    ............    ",
"    ............    ",
"    ............    ",
"    ............    ",
"    ............    ",
"    ............    ",
"    ............    ",
"    ............    ",
"    ............    ",
"    ............    ",
"    ............    ",
"    ............    ",
"    ............    ",
"    ............    ",
"    ............    ",
"    ............    "};
