/* XPM */
static char * coin_f2_xpm[] = {
"64 64 3 1",
" 	c None",
".	c #FACB3E",
"+	c #EE8E2E",
"                                                                ",
"                                                                ",
"                                                                ",
"                                                                ",
"                                                                ",
"                                                                ",
"                                                                ",
"                                                                ",
"                                                                ",
"                                                                ",
"                                                                ",
"                                                                ",
"                                                                ",
"                                                                ",
"                                                                ",
"                                                                ",
"                                                                ",
"                                                                ",
"                                                                ",
"                                                                ",
"                            ....++++                            ",
"                            ....++++                            ",
"                            ....++++                            ",
"                            ....++++                            ",
"                            ....++++                            ",
"                            ....++++                            ",
"                            ....++++                            ",
"                            ....++++                            ",
"                            ....++++                            ",
"                            ....++++                            ",
"                            ....++++                            ",
"                            ....++++                            ",
"                            ....++++                            ",
"                            ....++++                            ",
"                            ....++++                            ",
"                            ....++++                            ",
"                            ....++++                            ",
"                            ....++++                            ",
"                            ....++++                            ",
"                            ....++++                            ",
"                            ....++++                            ",
"                            ....++++                            ",
"                            ....++++                            ",
"                            ....++++                            ",
"                            ....++++                            ",
"                            ....++++                            ",
"                            ....++++                            ",
"                            ....++++                            ",
"                                                                ",
"                                                                ",
"                                                                ",
"                                                                ",
"                                                                ",
"                                                                ",
"                                                                ",
"                                                                ",
"                                                                ",
"                                                                ",
"                                                                ",
"                                                                ",
"                                                                ",
"                                                                ",
"                                                                ",
"                                                                "};
