/* XPM */
static char * column_mid_xpm[] = {
"16 16 7 1",
" 	c None",
".	c #21141B",
"+	c #483B3A",
"@	c #222222",
"#	c #775C55",
"$	c #23151D",
"%	c #1C1117",
"  .++@++++@++.  ",
"  .++@++++@++.  ",
"  ..#@++++@#$.  ",
"  .+.+####+.+.  ",
"  .++$....$++.  ",
"  .++@++++@++.  ",
"  .++@++++@++.  ",
"  .++@++++@++.  ",
"  $++@++++@++.  ",
"  .$#@++++@#..  ",
"  .+.+####+.+.  ",
"  .++$....$++.  ",
"  .++@++++@++.  ",
"  .++@++++@++.  ",
" $$++@++++@++$. ",
"%$@.#@++++@#.@. "};
