/* XPM */
static char * column_mid_xpm[] = {
"16 16 9 1",
" 	c None",
".	c #222222",
"+	c #483B3A",
"@	c #775C55",
"#	c #1C1117",
"$	c #140C11",
"%	c #1D1218",
"&	c #21141B",
"*	c #23151D",
" .+@........@+. ",
" #++@@@@@@@@++# ",
"  $++++++++++%  ",
"  &&++++++++&$  ",
"  &.*&&&&&&*.&  ",
"  &+........+&  ",
"  &++.++++.++&  ",
"  &++.++++.++&  ",
"  *++.++++.++&  ",
"  &*@.++++.@&&  ",
"  &+&+@@@@+&+&  ",
"  &++*&&&&*++&  ",
"  &++.++++.++&  ",
"  &++.++++.++&  ",
" **++.++++.++*& ",
"#*.&@.++++.@&.& "};
