/* XPM */
static char * demon_run_r0_xpm[] = {
"128 144 5 1",
" 	c None",
".	c #222222",
"+	c #DA4E38",
"@	c #9F294E",
"#	c #FDF7ED",
"                                                                                                                                ",
"                                                                                                                                ",
"                                                                                                                                ",
"                                                                                                                                ",
"                                                                                                                                ",
"                                                                                                                                ",
"                                                                                                                                ",
"                                                                                                                                ",
"                                                                                                                                ",
"                                                                                                                                ",
"                                                                                                                                ",
"                                                                                                                                ",
"                                                                                                                                ",
"                                                                                                                                ",
"                                                                                                                                ",
"                                                                                                                                ",
"                                                                                                                                ",
"                                                                                                                                ",
"                                                                                                                                ",
"                                                                                                                                ",
"                                                                                                                                ",
"                                                                                                                                ",
"                                                                                                                                ",
"                                                                                                                                ",
"                                                                    ....                                                        ",
"                                                                    ....                                                        ",
"                                                                    ....                                                        ",
"                                                                    ....                                                        ",
"                                                        ....    ....                ....                                        ",
"                                                        ....    ....                ....                                        ",
"                                                        ....    ....                ....                                        ",
"                                                        ....    ....                ....                                        ",
"                                                    ........    ....    ....    ....                                            ",
"                                                    ........    ....    ....    ....                                            ",
"                                                    ........    ....    ....    ....                                            ",
"                                                    ........    ....    ....    ....                                            ",
"                                ............        ................................                                            ",
"                                ............        ................................                                            ",
"                                ............        ................................                                            ",
"                                ............        ................................                                            ",
"                                    ....................++++++++@@@@@@@@++++++++@@@@....                                        ",
"                                    ....................++++++++@@@@@@@@++++++++@@@@....                                        ",
"                                    ....................++++++++@@@@@@@@++++++++@@@@....                                        ",
"                                    ....................++++++++@@@@@@@@++++++++@@@@....                                        ",
"                                ........................++++++++########++++++++####............                                ",
"                                ........................++++++++########++++++++####............                                ",
"                                ........................++++++++########++++++++####............                                ",
"                                ........................++++++++########++++++++####............                                ",
"                ........................@@@@....@@@@....++++++++########++++++++####....@@@@........                            ",
"                ........................@@@@....@@@@....++++++++########++++++++####....@@@@........                            ",
"                ........................@@@@....@@@@....++++++++########++++++++####....@@@@........                            ",
"                ........................@@@@....@@@@....++++++++########++++++++####....@@@@........                            ",
"                    ............@@@@....++++++++@@@@....++++++++........++++++++........++++@@@@........                        ",
"                    ............@@@@....++++++++@@@@....++++++++........++++++++........++++@@@@........                        ",
"                    ............@@@@....++++++++@@@@....++++++++........++++++++........++++@@@@........                        ",
"                    ............@@@@....++++++++@@@@....++++++++........++++++++........++++@@@@........                        ",
"                            ....@@@@++++++++++++++++@@@@............................@@@@++++++++........                        ",
"                            ....@@@@++++++++++++++++@@@@............................@@@@++++++++........                        ",
"                            ....@@@@++++++++++++++++@@@@............................@@@@++++++++........                        ",
"                            ....@@@@++++++++++++++++@@@@............................@@@@++++++++........                        ",
"                        ............@@@@@@@@++++++++++++@@@@@@@@@@@@@@@@@@@@@@@@@@@@++++++++++++........                        ",
"                        ............@@@@@@@@++++++++++++@@@@@@@@@@@@@@@@@@@@@@@@@@@@++++++++++++........                        ",
"                        ............@@@@@@@@++++++++++++@@@@@@@@@@@@@@@@@@@@@@@@@@@@++++++++++++........                        ",
"                        ............@@@@@@@@++++++++++++@@@@@@@@@@@@@@@@@@@@@@@@@@@@++++++++++++........                        ",
"                        ........@@@@@@@@++++++++++++++++++++++++++++++++++++++++++++++++++++++++....                            ",
"                        ........@@@@@@@@++++++++++++++++++++++++++++++++++++++++++++++++++++++++....                            ",
"                        ........@@@@@@@@++++++++++++++++++++++++++++++++++++++++++++++++++++++++....                            ",
"                        ........@@@@@@@@++++++++++++++++++++++++++++++++++++++++++++++++++++++++....                            ",
"                    ................@@@@....++++....++++....++++....++++....++++....++++............                            ",
"                    ................@@@@....++++....++++....++++....++++....++++....++++............                            ",
"                    ................@@@@....++++....++++....++++....++++....++++....++++............                            ",
"                    ................@@@@....++++....++++....++++....++++....++++....++++............                            ",
"                            ............................####....####....####....####....####........                            ",
"                            ............................####....####....####....####....####........                            ",
"                            ............................####....####....####....####....####........                            ",
"                            ............................####....####....####....####....####........                            ",
"                                    ............................####............####............                                ",
"                                    ............................####............####............                                ",
"                                    ............................####............####............                                ",
"                                    ............................####............####............                                ",
"                                        ....................................................                                    ",
"                                        ....................................................                                    ",
"                                        ....................................................                                    ",
"                                        ....................................................                                    ",
"                        ........    ............................................................                                ",
"                        ........    ............................................................                                ",
"                        ........    ............................................................                                ",
"                        ........    ............................................................                                ",
"                    ........................................####....................####............                            ",
"                    ........................................####....................####............                            ",
"                    ........................................####....................####............                            ",
"                    ........................................####....................####............                            ",
"                        ............................####....####....####....####....####....####........                        ",
"                        ............................####....####....####....####....####....####........                        ",
"                        ............................####....####....####....####....####....####........                        ",
"                        ............................####....####....####....####....####....####........                        ",
"                    ....................@@@@....@@@@....++++....++++....++++....++++....@@@@........                            ",
"                    ....................@@@@....@@@@....++++....++++....++++....++++....@@@@........                            ",
"                    ....................@@@@....@@@@....++++....++++....++++....++++....@@@@........                            ",
"                    ....................@@@@....@@@@....++++....++++....++++....++++....@@@@........                            ",
"                ........    ....@@@@....++++++++++++++++++++++++++++++++++++++++++++++++++++@@@@....                            ",
"                ........    ....@@@@....++++++++++++++++++++++++++++++++++++++++++++++++++++@@@@....                            ",
"                ........    ....@@@@....++++++++++++++++++++++++++++++++++++++++++++++++++++@@@@....                            ",
"                ........    ....@@@@....++++++++++++++++++++++++++++++++++++++++++++++++++++@@@@....                            ",
"                            ....@@@@@@@@@@@@@@@@++++++++++++++++++++++++++++++++++++++++++++++++....                            ",
"                            ....@@@@@@@@@@@@@@@@++++++++++++++++++++++++++++++++++++++++++++++++....                            ",
"                            ....@@@@@@@@@@@@@@@@++++++++++++++++++++++++++++++++++++++++++++++++....                            ",
"                            ....@@@@@@@@@@@@@@@@++++++++++++++++++++++++++++++++++++++++++++++++....                            ",
"                            ........@@@@@@@@++++++++++++++++@@@@++++++++++++++++++++++++++++++++........                        ",
"                            ........@@@@@@@@++++++++++++++++@@@@++++++++++++++++++++++++++++++++........                        ",
"                            ........@@@@@@@@++++++++++++++++@@@@++++++++++++++++++++++++++++++++........                        ",
"                            ........@@@@@@@@++++++++++++++++@@@@++++++++++++++++++++++++++++++++........                        ",
"                        ........@@@@@@@@@@@@@@@@@@@@@@@@@@@@@@@@@@@@@@@@++++++++@@@@@@@@++++++++........                        ",
"                        ........@@@@@@@@@@@@@@@@@@@@@@@@@@@@@@@@@@@@@@@@++++++++@@@@@@@@++++++++........                        ",
"                        ........@@@@@@@@@@@@@@@@@@@@@@@@@@@@@@@@@@@@@@@@++++++++@@@@@@@@++++++++........                        ",
"                        ........@@@@@@@@@@@@@@@@@@@@@@@@@@@@@@@@@@@@@@@@++++++++@@@@@@@@++++++++........                        ",
"                    ............@@@@@@@@@@@@@@@@@@@@@@@@@@@@@@@@@@@@@@@@@@@@@@@@@@@@@@@@@@@@@@@@....                            ",
"                    ............@@@@@@@@@@@@@@@@@@@@@@@@@@@@@@@@@@@@@@@@@@@@@@@@@@@@@@@@@@@@@@@@....                            ",
"                    ............@@@@@@@@@@@@@@@@@@@@@@@@@@@@@@@@@@@@@@@@@@@@@@@@@@@@@@@@@@@@@@@@....                            ",
"                    ............@@@@@@@@@@@@@@@@@@@@@@@@@@@@@@@@@@@@@@@@@@@@@@@@@@@@@@@@@@@@@@@@....                            ",
"                    ....        ....@@@@@@@@@@@@@@@@............................@@@@@@@@@@@@....                                ",
"                    ....        ....@@@@@@@@@@@@@@@@............................@@@@@@@@@@@@....                                ",
"                    ....        ....@@@@@@@@@@@@@@@@............................@@@@@@@@@@@@....                                ",
"                    ....        ....@@@@@@@@@@@@@@@@............................@@@@@@@@@@@@....                                ",
"                                    ....@@@@@@@@....                        ................                                    ",
"                                    ....@@@@@@@@....                        ................                                    ",
"                                    ....@@@@@@@@....                        ................                                    ",
"                                    ....@@@@@@@@....                        ................                                    ",
"                                    ....@@@@....                                                                                ",
"                                    ....@@@@....                                                                                ",
"                                    ....@@@@....                                                                                ",
"                                    ....@@@@....                                                                                ",
"                                    ............                                                                                ",
"                                    ............                                                                                ",
"                                    ............                                                                                ",
"                                    ............                                                                                ",
"                                                                                                                                ",
"                                                                                                                                ",
"                                                                                                                                ",
"                                                                                                                                ",
"                                                                                                                                ",
"                                                                                                                                ",
"                                                                                                                                ",
"                                                                                                                                "};
