/* XPM */
static char * demon_idle_r4_xpm[] = {
"128 144 5 1",
" 	c None",
".	c #222222",
"+	c #DA4E38",
"@	c #9F294E",
"#	c #FDF7ED",
"                                                                                                                                ",
"                                                                                                                                ",
"                                                                                                                                ",
"                                                                                                                                ",
"                                                                                                                                ",
"                                                                                                                                ",
"                                                                                                                                ",
"                                                                                                                                ",
"                                                                                                                                ",
"                                                                                                                                ",
"                                                                                                                                ",
"                                                                                                                                ",
"                                                                                                                                ",
"                                                                                                                                ",
"                                                                                                                                ",
"                                                                                                                                ",
"                                                                                                                                ",
"                                                                                                                                ",
"                                                                                                                                ",
"                                                                                                                                ",
"                                                                                                                                ",
"                                                                                                                                ",
"                                                                                                                                ",
"                                                                                                                                ",
"                                                                                                                                ",
"                                                                                                                                ",
"                                                                                                                                ",
"                                                                                                                                ",
"                                                                                                                                ",
"                                                                                                                                ",
"                                                                                                                                ",
"                                                                                                                                ",
"                                                                ....                                                            ",
"                                                                ....                                                            ",
"                                                                ....                                                            ",
"                                                                ....                                                            ",
"                                                        ....    ....            ....                                            ",
"                                                        ....    ....            ....                                            ",
"                                                        ....    ....            ....                                            ",
"                                                        ....    ....            ....                                            ",
"                                                    ........    ....    ....    ....                                            ",
"                                                    ........    ....    ....    ....                                            ",
"                                                    ........    ....    ....    ....                                            ",
"                                                    ........    ....    ....    ....                                            ",
"                                                    ................................                                            ",
"                                                    ................................                                            ",
"                                                    ................................                                            ",
"                                                    ................................                                            ",
"                                ....                ....++++++++@@@@@@@@++++++++@@@@....                                        ",
"                                ....                ....++++++++@@@@@@@@++++++++@@@@....                                        ",
"                                ....                ....++++++++@@@@@@@@++++++++@@@@....                                        ",
"                                ....                ....++++++++@@@@@@@@++++++++@@@@....                                        ",
"                                ........            ....++++++++########++++++++####....                                        ",
"                                ........            ....++++++++########++++++++####....                                        ",
"                                ........            ....++++++++########++++++++####....                                        ",
"                                ........            ....++++++++########++++++++####....                                        ",
"                ....                ........        ....++++++++########++++++++####....    ....                                ",
"                ....                ........        ....++++++++########++++++++####....    ....                                ",
"                ....                ........        ....++++++++########++++++++####....    ....                                ",
"                ....                ........        ....++++++++########++++++++####....    ....                                ",
"                ........        ........................++++++++########++++++++####....    ........                            ",
"                ........        ........................++++++++########++++++++####....    ........                            ",
"                ........        ........................++++++++########++++++++####....    ........                            ",
"                ........        ........................++++++++########++++++++####....    ........                            ",
"                ........................................++++++++########++++++++####................                            ",
"                ........................................++++++++########++++++++####................                            ",
"                ........................................++++++++########++++++++####................                            ",
"                ........................................++++++++########++++++++####................                            ",
"                    ................@@@@@@@@....@@@@....++++++++########++++++++####....@@@@@@@@........                        ",
"                    ................@@@@@@@@....@@@@....++++++++########++++++++####....@@@@@@@@........                        ",
"                    ................@@@@@@@@....@@@@....++++++++########++++++++####....@@@@@@@@........                        ",
"                    ................@@@@@@@@....@@@@....++++++++########++++++++####....@@@@@@@@........                        ",
"                        ....@@@@....++++++++++++@@@@....++++++++........++++++++........++++++++@@@@........                    ",
"                        ....@@@@....++++++++++++@@@@....++++++++........++++++++........++++++++@@@@........                    ",
"                        ....@@@@....++++++++++++@@@@....++++++++........++++++++........++++++++@@@@........                    ",
"                        ....@@@@....++++++++++++@@@@....++++++++........++++++++........++++++++@@@@........                    ",
"                        ....@@@@++++++++++++++++++++@@@@............................@@@@++++++++++++........                    ",
"                        ....@@@@++++++++++++++++++++@@@@............................@@@@++++++++++++........                    ",
"                        ....@@@@++++++++++++++++++++@@@@............................@@@@++++++++++++........                    ",
"                        ....@@@@++++++++++++++++++++@@@@............................@@@@++++++++++++........                    ",
"                ................@@@@@@@@@@@@++++++++++++@@@@@@@@@@@@@@@@@@@@@@@@@@@@++++++++++++++++........                    ",
"                ................@@@@@@@@@@@@++++++++++++@@@@@@@@@@@@@@@@@@@@@@@@@@@@++++++++++++++++........                    ",
"                ................@@@@@@@@@@@@++++++++++++@@@@@@@@@@@@@@@@@@@@@@@@@@@@++++++++++++++++........                    ",
"                ................@@@@@@@@@@@@++++++++++++@@@@@@@@@@@@@@@@@@@@@@@@@@@@++++++++++++++++........                    ",
"                    ........@@@@@@@@++++++++++++++++++++++++++++++++++++++++++++++++++++++++++++++++....                        ",
"                    ........@@@@@@@@++++++++++++++++++++++++++++++++++++++++++++++++++++++++++++++++....                        ",
"                    ........@@@@@@@@++++++++++++++++++++++++++++++++++++++++++++++++++++++++++++++++....                        ",
"                    ........@@@@@@@@++++++++++++++++++++++++++++++++++++++++++++++++++++++++++++++++....                        ",
"                        ........@@@@........++++....++++....++++....++++....++++....++++................                        ",
"                        ........@@@@........++++....++++....++++....++++....++++....++++................                        ",
"                        ........@@@@........++++....++++....++++....++++....++++....++++................                        ",
"                        ........@@@@........++++....++++....++++....++++....++++....++++................                        ",
"                            ............................####....####....####....####....####........                            ",
"                            ............................####....####....####....####....####........                            ",
"                            ............................####....####....####....####....####........                            ",
"                            ............................####....####....####....####....####........                            ",
"                    ....            ............................####............####............                                ",
"                    ....            ............................####............####............                                ",
"                    ....            ............................####............####............                                ",
"                    ....            ............................####............####............                                ",
"                    ............    ............................................................                                ",
"                    ............    ............................................................                                ",
"                    ............    ............................................................                                ",
"                    ............    ............................................................                                ",
"                        ....................................####....................####............                            ",
"                        ....................................####....................####............                            ",
"                        ....................................####....................####............                            ",
"                        ....................................####....................####............                            ",
"                ....................................####....####....####....####....####....####........                        ",
"                ....................................####....####....####....####....####....####........                        ",
"                ....................................####....####....####....####....####....####........                        ",
"                ....................................####....####....####....####....####....####........                        ",
"                    ....................@@@@....@@@@....++++....++++....++++....++++....@@@@............                        ",
"                    ....................@@@@....@@@@....++++....++++....++++....++++....@@@@............                        ",
"                    ....................@@@@....@@@@....++++....++++....++++....++++....@@@@............                        ",
"                    ....................@@@@....@@@@....++++....++++....++++....++++....@@@@............                        ",
"                        ....@@@@....++++++++++++++++++++++++++++++++++++++++++++++++++++++++@@@@@@@@....                        ",
"                        ....@@@@....++++++++++++++++++++++++++++++++++++++++++++++++++++++++@@@@@@@@....                        ",
"                        ....@@@@....++++++++++++++++++++++++++++++++++++++++++++++++++++++++@@@@@@@@....                        ",
"                        ....@@@@....++++++++++++++++++++++++++++++++++++++++++++++++++++++++@@@@@@@@....                        ",
"                        ....@@@@@@@@@@@@@@@@@@@@++++++++++++++++++++++++++++++++++++++++++++++++++++....                        ",
"                        ....@@@@@@@@@@@@@@@@@@@@++++++++++++++++++++++++++++++++++++++++++++++++++++....                        ",
"                        ....@@@@@@@@@@@@@@@@@@@@++++++++++++++++++++++++++++++++++++++++++++++++++++....                        ",
"                        ....@@@@@@@@@@@@@@@@@@@@++++++++++++++++++++++++++++++++++++++++++++++++++++....                        ",
"                        ........@@@@@@@@@@@@++++++++++++++++@@@@++++++++++++++++++++++++++++++++++++....                        ",
"                        ........@@@@@@@@@@@@++++++++++++++++@@@@++++++++++++++++++++++++++++++++++++....                        ",
"                        ........@@@@@@@@@@@@++++++++++++++++@@@@++++++++++++++++++++++++++++++++++++....                        ",
"                        ........@@@@@@@@@@@@++++++++++++++++@@@@++++++++++++++++++++++++++++++++++++....                        ",
"                ............@@@@@@@@@@@@@@@@@@@@@@@@@@@@@@@@@@@@@@@@@@@@++++++++@@@@@@@@++++++++++++....                        ",
"                ............@@@@@@@@@@@@@@@@@@@@@@@@@@@@@@@@@@@@@@@@@@@@++++++++@@@@@@@@++++++++++++....                        ",
"                ............@@@@@@@@@@@@@@@@@@@@@@@@@@@@@@@@@@@@@@@@@@@@++++++++@@@@@@@@++++++++++++....                        ",
"                ............@@@@@@@@@@@@@@@@@@@@@@@@@@@@@@@@@@@@@@@@@@@@++++++++@@@@@@@@++++++++++++....                        ",
"                    ............@@@@@@@@@@@@@@@@@@@@@@@@@@@@@@@@@@@@@@@@@@@@@@@@@@@@@@@@@@@@@@@@@@@@........                    ",
"                    ............@@@@@@@@@@@@@@@@@@@@@@@@@@@@@@@@@@@@@@@@@@@@@@@@@@@@@@@@@@@@@@@@@@@@........                    ",
"                    ............@@@@@@@@@@@@@@@@@@@@@@@@@@@@@@@@@@@@@@@@@@@@@@@@@@@@@@@@@@@@@@@@@@@@........                    ",
"                    ............@@@@@@@@@@@@@@@@@@@@@@@@@@@@@@@@@@@@@@@@@@@@@@@@@@@@@@@@@@@@@@@@@@@@........                    ",
"                        ............................@@@@@@@@@@@@@@@@@@@@............................                            ",
"                        ............................@@@@@@@@@@@@@@@@@@@@............................                            ",
"                        ............................@@@@@@@@@@@@@@@@@@@@............................                            ",
"                        ............................@@@@@@@@@@@@@@@@@@@@............................                            ",
"                                                    ....@@@@@@@@@@@@....                                                        ",
"                                                    ....@@@@@@@@@@@@....                                                        ",
"                                                    ....@@@@@@@@@@@@....                                                        ",
"                                                    ....@@@@@@@@@@@@....                                                        "};
