/* XPM */
static char * demon_idle_r2_xpm[] = {
"128 144 5 1",
" 	c None",
".	c #222222",
"+	c #9F294E",
"@	c #DA4E38",
"#	c #FDF7ED",
"                                                                                                                                ",
"                                                                                                                                ",
"                                                                                                                                ",
"                                                                                                                                ",
"                                                                                                                                ",
"                                                                                                                                ",
"                                                                                                                                ",
"                                                                                                                                ",
"                                                                                                                                ",
"                                                                                                                                ",
"                                                                                                                                ",
"                                                                                                                                ",
"                                                                                                                                ",
"                                                                                                                                ",
"                                                                                                                                ",
"                                                                                                                                ",
"                                                                                                                                ",
"                                                                                                                                ",
"                                                                                                                                ",
"                                                                                                                                ",
"                                                                    ....                                                        ",
"                                                                    ....                                                        ",
"                                                                    ....                                                        ",
"                                                                    ....                                                        ",
"                                                        ....    ....                ....                                        ",
"                                                        ....    ....                ....                                        ",
"                                                        ....    ....                ....                                        ",
"                                                        ....    ....                ....                                        ",
"                                ................    ................................                                            ",
"                                ................    ................................                                            ",
"                                ................    ................................                                            ",
"                                ................    ................................                                            ",
"                            ............++++............@@@@@@@@++++++++@@@@@@@@++++................                            ",
"                            ............++++............@@@@@@@@++++++++@@@@@@@@++++................                            ",
"                            ............++++............@@@@@@@@++++++++@@@@@@@@++++................                            ",
"                            ............++++............@@@@@@@@++++++++@@@@@@@@++++................                            ",
"                        ................@@@@....++++....@@@@@@@@########@@@@@@@@####....++++............                        ",
"                        ................@@@@....++++....@@@@@@@@########@@@@@@@@####....++++............                        ",
"                        ................@@@@....++++....@@@@@@@@########@@@@@@@@####....++++............                        ",
"                        ................@@@@....++++....@@@@@@@@########@@@@@@@@####....++++............                        ",
"                    ....        ....++++@@@@@@@@++++....@@@@@@@@########@@@@@@@@####....@@@@....    ....                        ",
"                    ....        ....++++@@@@@@@@++++....@@@@@@@@########@@@@@@@@####....@@@@....    ....                        ",
"                    ....        ....++++@@@@@@@@++++....@@@@@@@@########@@@@@@@@####....@@@@....    ....                        ",
"                    ....        ....++++@@@@@@@@++++....@@@@@@@@########@@@@@@@@####....@@@@....    ....                        ",
"                            ............++++@@@@++++....@@@@@@@@........@@@@@@@@........@@@@........                            ",
"                            ............++++@@@@++++....@@@@@@@@........@@@@@@@@........@@@@........                            ",
"                            ............++++@@@@++++....@@@@@@@@........@@@@@@@@........@@@@........                            ",
"                            ............++++@@@@++++....@@@@@@@@........@@@@@@@@........@@@@........                            ",
"                        ............++++@@@@@@@@@@@@++++............................++++@@@@............                        ",
"                        ............++++@@@@@@@@@@@@++++............................++++@@@@............                        ",
"                        ............++++@@@@@@@@@@@@++++............................++++@@@@............                        ",
"                        ............++++@@@@@@@@@@@@++++............................++++@@@@............                        ",
"                    ........................@@@@@@@@++++....++++....++++....++++....++++........    ....                        ",
"                    ........................@@@@@@@@++++....++++....++++....++++....++++........    ....                        ",
"                    ........................@@@@@@@@++++....++++....++++....++++....++++........    ....                        ",
"                    ........................@@@@@@@@++++....++++....++++....++++....++++........    ....                        ",
"                    ........    ........................####....####....####....####....####....                                ",
"                    ........    ........................####....####....####....####....####....                                ",
"                    ........    ........................####....####....####....####....####....                                ",
"                    ........    ........................####....####....####....####....####....                                ",
"                    ....        ................................####............####........                                    ",
"                    ....        ................................####............####........                                    ",
"                    ....        ................................####............####........                                    ",
"                    ....        ................................####............####........                                    ",
"                                    ........................................................                                    ",
"                                    ........................................................                                    ",
"                                    ........................................................                                    ",
"                                    ........................................................                                    ",
"                                    ....    ............................................                                        ",
"                                    ....    ............................................                                        ",
"                                    ....    ............................................                                        ",
"                                    ....    ............................................                                        ",
"                                    ....    ............................................                                        ",
"                                    ....    ............................................                                        ",
"                                    ....    ............................................                                        ",
"                                    ....    ............................................                                        ",
"                                            ....    ....................    ....    ....                                        ",
"                                            ....    ....................    ....    ....                                        ",
"                                            ....    ....................    ....    ....                                        ",
"                                            ....    ....................    ....    ....                                        ",
"                                            ....    ....    ........                                                            ",
"                                            ....    ....    ........                                                            ",
"                                            ....    ....    ........                                                            ",
"                                            ....    ....    ........                                                            ",
"                                                            ........                ....                                        ",
"                                                            ........                ....                                        ",
"                                                            ........                ....                                        ",
"                                                            ........                ....                                        ",
"                                            ....        ................    ....                                                ",
"                                            ....        ................    ....                                                ",
"                                            ....        ................    ....                                                ",
"                                            ....        ................    ....                                                ",
"                                    ....    ....................................    ....                                        ",
"                                    ....    ....................................    ....                                        ",
"                                    ....    ....................................    ....                                        ",
"                                    ....    ....................................    ....                                        ",
"                        ....        ....................................................            ....                        ",
"                        ....        ....................................................            ....                        ",
"                        ....        ....................................................            ....                        ",
"                        ....        ....................................................            ....                        ",
"                        ........    ............................................................    ....                        ",
"                        ........    ............................................................    ....                        ",
"                        ........    ............................................................    ....                        ",
"                        ........    ............................................................    ....                        ",
"                            ................................####....................####................                        ",
"                            ................................####....................####................                        ",
"                            ................................####....................####................                        ",
"                            ................................####....................####................                        ",
"                        ............................####....####....####....####....####....####........                        ",
"                        ............................####....####....####....####....####....####........                        ",
"                        ............................####....####....####....####....####....####........                        ",
"                        ............................####....####....####....####....####....####........                        ",
"                        ................++++....++++....@@@@....@@@@....@@@@....@@@@....++++........                            ",
"                        ................++++....++++....@@@@....@@@@....@@@@....@@@@....++++........                            ",
"                        ................++++....++++....@@@@....@@@@....@@@@....@@@@....++++........                            ",
"                        ................++++....++++....@@@@....@@@@....@@@@....@@@@....++++........                            ",
"                            ....++++....@@@@@@@@@@@@@@@@@@@@@@@@@@@@@@@@@@@@@@@@@@@@@@@@@@@@++++....                            ",
"                            ....++++....@@@@@@@@@@@@@@@@@@@@@@@@@@@@@@@@@@@@@@@@@@@@@@@@@@@@++++....                            ",
"                            ....++++....@@@@@@@@@@@@@@@@@@@@@@@@@@@@@@@@@@@@@@@@@@@@@@@@@@@@++++....                            ",
"                            ....++++....@@@@@@@@@@@@@@@@@@@@@@@@@@@@@@@@@@@@@@@@@@@@@@@@@@@@++++....                            ",
"                            ....++++++++++++++++@@@@@@@@@@@@@@@@@@@@@@@@@@@@@@@@@@@@@@@@@@@@@@@@............                    ",
"                            ....++++++++++++++++@@@@@@@@@@@@@@@@@@@@@@@@@@@@@@@@@@@@@@@@@@@@@@@@............                    ",
"                            ....++++++++++++++++@@@@@@@@@@@@@@@@@@@@@@@@@@@@@@@@@@@@@@@@@@@@@@@@............                    ",
"                            ....++++++++++++++++@@@@@@@@@@@@@@@@@@@@@@@@@@@@@@@@@@@@@@@@@@@@@@@@............                    ",
"                    ................++++++++@@@@@@@@@@@@@@@@++++@@@@@@@@@@@@@@@@@@@@@@@@@@@@@@@@........                        ",
"                    ................++++++++@@@@@@@@@@@@@@@@++++@@@@@@@@@@@@@@@@@@@@@@@@@@@@@@@@........                        ",
"                    ................++++++++@@@@@@@@@@@@@@@@++++@@@@@@@@@@@@@@@@@@@@@@@@@@@@@@@@........                        ",
"                    ................++++++++@@@@@@@@@@@@@@@@++++@@@@@@@@@@@@@@@@@@@@@@@@@@@@@@@@........                        ",
"                        ........++++++++++++++++++++++++++++++++++++++++@@@@@@@@++++++++@@@@@@@@....                            ",
"                        ........++++++++++++++++++++++++++++++++++++++++@@@@@@@@++++++++@@@@@@@@....                            ",
"                        ........++++++++++++++++++++++++++++++++++++++++@@@@@@@@++++++++@@@@@@@@....                            ",
"                        ........++++++++++++++++++++++++++++++++++++++++@@@@@@@@++++++++@@@@@@@@....                            ",
"                            ....++++++++++++++++++++++++++++++++++++++++++++++++++++++++++++++++....                            ",
"                            ....++++++++++++++++++++++++++++++++++++++++++++++++++++++++++++++++....                            ",
"                            ....++++++++++++++++++++++++++++++++++++++++++++++++++++++++++++++++....                            ",
"                            ....++++++++++++++++++++++++++++++++++++++++++++++++++++++++++++++++....                            ",
"                                ....++++++++++++++++........................++++++++++++++++....                                ",
"                                ....++++++++++++++++........................++++++++++++++++....                                ",
"                                ....++++++++++++++++........................++++++++++++++++....                                ",
"                                ....++++++++++++++++........................++++++++++++++++....                                ",
"                                    ....++++++++....                        ....++++++++....                                    ",
"                                    ....++++++++....                        ....++++++++....                                    ",
"                                    ....++++++++....                        ....++++++++....                                    ",
"                                    ....++++++++....                        ....++++++++....                                    "};
