/* XPM */
static char * exit_ladder_xpm[] = {
"16 32 11 1",
" 	c None",
".	c #C56025",
"+	c #222222",
"@	c #B45F30",
"#	c #282828",
"$	c #1C1C1C",
"%	c #A64E28",
"&	c #8F4029",
"*	c #604B47",
"=	c #974528",
"-	c #483B3A",
"                ",
"                ",
"                ",
"                ",
"                ",
"                ",
"                ",
"                ",
"                ",
"                ",
"                ",
"                ",
"    .      .    ",
"    .+.... .    ",
"    .++++++.    ",
"    @#....+.    ",
"    @##++++@    ",
"    @#@@@@$@    ",
"    %#+++$$%    ",
"    %+%%%%$%    ",
"    %++$$$$%    ",
"    &+....$%    ",
"    &++++++&    ",
"    &+&&&&+&    ",
"   *&++++++&*   ",
"   *&+****+&*   ",
"   *=-****-=*   ",
"    ********    ",
"                ",
"                ",
"                ",
"                "};
