/* XPM */
static char * floor_5_xpm[] = {
"16 16 3 1",
" 	c #222222",
".	c #483B3A",
"+	c #775C55",
"   .    ... .   ",
" ... +.........+",
"...+. .........+",
"+.. ...........+",
" ..............+",
"...............+",
" ...............",
" ..............+",
" ...............",
" ...............",
" ..............+",
" ...............",
" ...............",
" ..+ ..........+",
" .+ ...........+",
"+++  +.++++.++++"};
