/* XPM */
static char * orc_run_l3_xpm[] = {
"128 128 7 1",
" 	c None",
".	c #222222",
"+	c #3D734F",
"@	c #314152",
"#	c #62232F",
"$	c #FDF7ED",
"%	c #8F4029",
"                                                                                                                                ",
"                                                                                                                                ",
"                                                                                                                                ",
"                                                                                                                                ",
"                                                                                                                                ",
"                                                                                                                                ",
"                                                                                                                                ",
"                                                                                                                                ",
"                                                                                                                                ",
"                                                                                                                                ",
"                                                                                                                                ",
"                                                                                                                                ",
"                                                                                                                                ",
"                                                                                                                                ",
"                                                                                                                                ",
"                                                                                                                                ",
"                                                                                                                                ",
"                                                                                                                                ",
"                                                                                                                                ",
"                                                                                                                                ",
"                                                                                                                                ",
"                                                                                                                                ",
"                                                                                                                                ",
"                                                                                                                                ",
"                                    ........................................                                                    ",
"                                    ........................................                                                    ",
"                                    ........................................                                                    ",
"                                    ........................................                                                    ",
"                                ....++++++++++++++++++++++++++++++++++++@@@@....                                                ",
"                                ....++++++++++++++++++++++++++++++++++++@@@@....                                                ",
"                                ....++++++++++++++++++++++++++++++++++++@@@@....                                                ",
"                                ....++++++++++++++++++++++++++++++++++++@@@@....                                                ",
"                                ....++++++++++++++++++++++++++++++++++++@@@@....                                                ",
"                                ....++++++++++++++++++++++++++++++++++++@@@@....                                                ",
"                                ....++++++++++++++++++++++++++++++++++++@@@@....                                                ",
"                                ....++++++++++++++++++++++++++++++++++++@@@@....                                                ",
"                                ....++++++++++++++++++++++++++++++++++++@@@@....                                                ",
"                                ....++++++++++++++++++++++++++++++++++++@@@@....                                                ",
"                                ....++++++++++++++++++++++++++++++++++++@@@@....                                                ",
"                                ....++++++++++++++++++++++++++++++++++++@@@@....                                                ",
"                                ....@@@@@@@@@@@@@@@@@@@@@@@@@@@@@@@@++++@@@@....                                                ",
"                                ....@@@@@@@@@@@@@@@@@@@@@@@@@@@@@@@@++++@@@@....                                                ",
"                                ....@@@@@@@@@@@@@@@@@@@@@@@@@@@@@@@@++++@@@@....                                                ",
"                                ....@@@@@@@@@@@@@@@@@@@@@@@@@@@@@@@@++++@@@@....                                                ",
"                                ........++++++++++++++++........++++++++@@@@............    ....                                ",
"                                ........++++++++++++++++........++++++++@@@@............    ....                                ",
"                                ........++++++++++++++++........++++++++@@@@............    ....                                ",
"                                ........++++++++++++++++........++++++++@@@@............    ....                                ",
"                                ........++++++++++++++++........++++++++@@@@....####........                                    ",
"                                ........++++++++++++++++........++++++++@@@@....####........                                    ",
"                                ........++++++++++++++++........++++++++@@@@....####........                                    ",
"                                ........++++++++++++++++........++++++++@@@@....####........                                    ",
"                            ....$$$$@@@@++++++++++++++++@@@@@@@@$$$$++++@@@@....####....@@@@....    ....                        ",
"                            ....$$$$@@@@++++++++++++++++@@@@@@@@$$$$++++@@@@....####....@@@@....    ....                        ",
"                            ....$$$$@@@@++++++++++++++++@@@@@@@@$$$$++++@@@@....####....@@@@....    ....                        ",
"                            ....$$$$@@@@++++++++++++++++@@@@@@@@$$$$++++@@@@....####....@@@@....    ....                        ",
"                            ....$$$$$$$$++++++++++++++++++++$$$$$$$$....@@@@....####........@@@@....                            ",
"                            ....$$$$$$$$++++++++++++++++++++$$$$$$$$....@@@@....####........@@@@....                            ",
"                            ....$$$$$$$$++++++++++++++++++++$$$$$$$$....@@@@....####........@@@@....                            ",
"                            ....$$$$$$$$++++++++++++++++++++$$$$$$$$....@@@@....####........@@@@....                            ",
"                            ....$$$$$$$$....................$$$$$$$$@@@@@@@@....####....++++@@@@........                        ",
"                            ....$$$$$$$$....................$$$$$$$$@@@@@@@@....####....++++@@@@........                        ",
"                            ....$$$$$$$$....................$$$$$$$$@@@@@@@@....####....++++@@@@........                        ",
"                            ....$$$$$$$$....................$$$$$$$$@@@@@@@@....####....++++@@@@........                        ",
"                            ....++++++++++++++++++++++++++++++++@@@@@@@@........####....++++@@@@....                            ",
"                            ....++++++++++++++++++++++++++++++++@@@@@@@@........####....++++@@@@....                            ",
"                            ....++++++++++++++++++++++++++++++++@@@@@@@@........####....++++@@@@....                            ",
"                            ....++++++++++++++++++++++++++++++++@@@@@@@@........####....++++@@@@....                            ",
"                            ........@@@@@@@@@@@@@@@@@@@@@@@@@@@@@@@@@@@@....%%%%####....@@@@@@@@........                        ",
"                            ........@@@@@@@@@@@@@@@@@@@@@@@@@@@@@@@@@@@@....%%%%####....@@@@@@@@........                        ",
"                            ........@@@@@@@@@@@@@@@@@@@@@@@@@@@@@@@@@@@@....%%%%####....@@@@@@@@........                        ",
"                            ........@@@@@@@@@@@@@@@@@@@@@@@@@@@@@@@@@@@@....%%%%####....@@@@@@@@........                        ",
"                            ....@@@@........................................%%%%####....++++@@@@....                            ",
"                            ....@@@@........................................%%%%####....++++@@@@....                            ",
"                            ....@@@@........................................%%%%####....++++@@@@....                            ",
"                            ....@@@@........................................%%%%####....++++@@@@....                            ",
"                            ....@@@@@@@@@@@@@@@@@@@@@@@@@@@@@@@@@@@@@@@@....%%%%####....@@@@@@@@....                            ",
"                            ....@@@@@@@@@@@@@@@@@@@@@@@@@@@@@@@@@@@@@@@@....%%%%####....@@@@@@@@....                            ",
"                            ....@@@@@@@@@@@@@@@@@@@@@@@@@@@@@@@@@@@@@@@@....%%%%####....@@@@@@@@....                            ",
"                            ....@@@@@@@@@@@@@@@@@@@@@@@@@@@@@@@@@@@@@@@@....%%%%####....@@@@@@@@....                            ",
"                        ....++++++++++++++++++++++++++++++++++++++++....%%%%####....++++@@@@@@@@@@@@....                        ",
"                        ....++++++++++++++++++++++++++++++++++++++++....%%%%####....++++@@@@@@@@@@@@....                        ",
"                        ....++++++++++++++++++++++++++++++++++++++++....%%%%####....++++@@@@@@@@@@@@....                        ",
"                        ....++++++++++++++++++++++++++++++++++++++++....%%%%####....++++@@@@@@@@@@@@....                        ",
"                        ....++++@@@@@@@@++++++++++++++++++++........%%%%%%%%####....++++++++@@@@@@@@....                        ",
"                        ....++++@@@@@@@@++++++++++++++++++++........%%%%%%%%####....++++++++@@@@@@@@....                        ",
"                        ....++++@@@@@@@@++++++++++++++++++++........%%%%%%%%####....++++++++@@@@@@@@....                        ",
"                        ....++++@@@@@@@@++++++++++++++++++++........%%%%%%%%####....++++++++@@@@@@@@....                        ",
"                        ....++++++++++++++++++++++++........%%%%%%%%%%%%####....++++++++@@@@@@@@@@@@....                        ",
"                        ....++++++++++++++++++++++++........%%%%%%%%%%%%####....++++++++@@@@@@@@@@@@....                        ",
"                        ....++++++++++++++++++++++++........%%%%%%%%%%%%####....++++++++@@@@@@@@@@@@....                        ",
"                        ....++++++++++++++++++++++++........%%%%%%%%%%%%####....++++++++@@@@@@@@@@@@....                        ",
"                        ....++++++++++++++++........%%%%%%%%%%%%%%%%####....++++++++@@@@@@@@@@@@@@@@....                        ",
"                        ....++++++++++++++++........%%%%%%%%%%%%%%%%####....++++++++@@@@@@@@@@@@@@@@....                        ",
"                        ....++++++++++++++++........%%%%%%%%%%%%%%%%####....++++++++@@@@@@@@@@@@@@@@....                        ",
"                        ....++++++++++++++++........%%%%%%%%%%%%%%%%####....++++++++@@@@@@@@@@@@@@@@....                        ",
"                    ........................%%%%%%%%%%%%%%%%%%%%%%%%%%%%####................................                    ",
"                    ........................%%%%%%%%%%%%%%%%%%%%%%%%%%%%####................................                    ",
"                    ........................%%%%%%%%%%%%%%%%%%%%%%%%%%%%####................................                    ",
"                    ........................%%%%%%%%%%%%%%%%%%%%%%%%%%%%####................................                    ",
"                    ....%%%%%%%%%%%%%%%%%%%%%%%%%%%%%%%%%%%%%%%%%%%%%%%%%%%%%%%%%%%%####################....                    ",
"                    ....%%%%%%%%%%%%%%%%%%%%%%%%%%%%%%%%%%%%%%%%%%%%%%%%%%%%%%%%%%%%####################....                    ",
"                    ....%%%%%%%%%%%%%%%%%%%%%%%%%%%%%%%%%%%%%%%%%%%%%%%%%%%%%%%%%%%%####################....                    ",
"                    ....%%%%%%%%%%%%%%%%%%%%%%%%%%%%%%%%%%%%%%%%%%%%%%%%%%%%%%%%%%%%####################....                    ",
"                    ....%%%%%%%%%%%%%%%%%%%%%%%%%%%%%%%%%%%%%%%%%%%%%%%%%%%%%%%%%%%%%%%%################....                    ",
"                    ....%%%%%%%%%%%%%%%%%%%%%%%%%%%%%%%%%%%%%%%%%%%%%%%%%%%%%%%%%%%%%%%%################....                    ",
"                    ....%%%%%%%%%%%%%%%%%%%%%%%%%%%%%%%%%%%%%%%%%%%%%%%%%%%%%%%%%%%%%%%%################....                    ",
"                    ....%%%%%%%%%%%%%%%%%%%%%%%%%%%%%%%%%%%%%%%%%%%%%%%%%%%%%%%%%%%%%%%%################....                    ",
"                    ....####%%%%%%%%%%%%%%%%%%%%%%%%%%%%%%%%%%%%%%%%%%%%%%%%%%%%%%%%####################....                    ",
"                    ....####%%%%%%%%%%%%%%%%%%%%%%%%%%%%%%%%%%%%%%%%%%%%%%%%%%%%%%%%####################....                    ",
"                    ....####%%%%%%%%%%%%%%%%%%%%%%%%%%%%%%%%%%%%%%%%%%%%%%%%%%%%%%%%####################....                    ",
"                    ....####%%%%%%%%%%%%%%%%%%%%%%%%%%%%%%%%%%%%%%%%%%%%%%%%%%%%%%%%####################....                    ",
"                    ....############%%%%####%%%%%%%%%%%%%%%%%%%%%%%%%%%%%%%%%%%%%%%%%%%%%%%%############....                    ",
"                    ....############%%%%####%%%%%%%%%%%%%%%%%%%%%%%%%%%%%%%%%%%%%%%%%%%%%%%%############....                    ",
"                    ....############%%%%####%%%%%%%%%%%%%%%%%%%%%%%%%%%%%%%%%%%%%%%%%%%%%%%%############....                    ",
"                    ....############%%%%####%%%%%%%%%%%%%%%%%%%%%%%%%%%%%%%%%%%%%%%%%%%%%%%%############....                    ",
"                    ....####%%%%%%%%%%%%%%%%%%%%%%%%%%%%%%%%%%%%%%%%%%%%%%%%%%%%%%%%%%%%################....                    ",
"                    ....####%%%%%%%%%%%%%%%%%%%%%%%%%%%%%%%%%%%%%%%%%%%%%%%%%%%%%%%%%%%%################....                    ",
"                    ....####%%%%%%%%%%%%%%%%%%%%%%%%%%%%%%%%%%%%%%%%%%%%%%%%%%%%%%%%%%%%################....                    ",
"                    ....####%%%%%%%%%%%%%%%%%%%%%%%%%%%%%%%%%%%%%%%%%%%%%%%%%%%%%%%%%%%%################....                    ",
"                    ....########%%%%%%%%%%%%%%%%%%%%%%%%%%%%%%%%%%%%%%%%%%%%%%%%%%%%####%%%%############....                    ",
"                    ....########%%%%%%%%%%%%%%%%%%%%%%%%%%%%%%%%%%%%%%%%%%%%%%%%%%%%####%%%%############....                    ",
"                    ....########%%%%%%%%%%%%%%%%%%%%%%%%%%%%%%%%%%%%%%%%%%%%%%%%%%%%####%%%%############....                    ",
"                    ....########%%%%%%%%%%%%%%%%%%%%%%%%%%%%%%%%%%%%%%%%%%%%%%%%%%%%####%%%%############....                    ",
"                    ....................################################################....................                    ",
"                    ....................################################################....................                    ",
"                    ....................################################################....................                    ",
"                    ....................################################################....................                    "};
