/* XPM */
static char * undead_run_r2_xpm[] = {
"128 136 8 1",
" 	c None",
".	c #222222",
"+	c #97DA3F",
"@	c #4BA747",
"#	c #775C55",
"$	c #AA8D7A",
"%	c #333333",
"&	c #483B3A",
"                                                                                                                                ",
"                                                                                                                                ",
"                                                                                                                                ",
"                                                                                                                                ",
"                                                                    ............                                                ",
"                                                                    ............                                                ",
"                                                                    ............                                                ",
"                                                                    ............                                                ",
"                                                            ........++++@@@@++++....                                            ",
"                                                            ........++++@@@@++++....                                            ",
"                                                            ........++++@@@@++++....                                            ",
"                                                            ........++++@@@@++++....                                            ",
"                                                        ....@@@@........++++++++....                                            ",
"                                                        ....@@@@........++++++++....                                            ",
"                                                        ....@@@@........++++++++....                                            ",
"                                                        ....@@@@........++++++++....                                            ",
"                                                    ....@@@@++++++++++++@@@@@@@@....                                            ",
"                                                    ....@@@@++++++++++++@@@@@@@@....                                            ",
"                                                    ....@@@@++++++++++++@@@@@@@@....                                            ",
"                                                    ....@@@@++++++++++++@@@@@@@@....                                            ",
"                                                    ....@@@@@@@@@@@@@@@@@@@@....                                                ",
"                                                    ....@@@@@@@@@@@@@@@@@@@@....                                                ",
"                                                    ....@@@@@@@@@@@@@@@@@@@@....                                                ",
"                                                    ....@@@@@@@@@@@@@@@@@@@@....                                                ",
"                                                    ....@@@@@@@@@@@@........                                                    ",
"                                                    ....@@@@@@@@@@@@........                                                    ",
"                                                    ....@@@@@@@@@@@@........                                                    ",
"                                                    ....@@@@@@@@@@@@........                                                    ",
"                                                        ............                                                            ",
"                                                        ............                                                            ",
"                                                        ............                                                            ",
"                                                        ............                                                            ",
"                                                                                                                                ",
"                                                                                                                                ",
"                                                                                                                                ",
"                                                                                                                                ",
"                                                ................................................                                ",
"                                                ................................................                                ",
"                                                ................................................                                ",
"                                                ................................................                                ",
"                                                ....####$$$$################################....                                ",
"                                                ....####$$$$################################....                                ",
"                                                ....####$$$$################################....                                ",
"                                                ....####$$$$################################....                                ",
"                                            ........####$$$$$$$$............$$$$$$$$............                                ",
"                                            ........####$$$$$$$$............$$$$$$$$............                                ",
"                                            ........####$$$$$$$$............$$$$$$$$............                                ",
"                                            ........####$$$$$$$$............$$$$$$$$............                                ",
"                                        ....####....####$$$$$$$$............$$$$$$$$................                            ",
"                                        ....####....####$$$$$$$$............$$$$$$$$................                            ",
"                                        ....####....####$$$$$$$$............$$$$$$$$................                            ",
"                                        ....####....####$$$$$$$$............$$$$$$$$................                            ",
"                                    ....########....####$$$$$$$$############$$$$$$$$############....                            ",
"                                    ....########....####$$$$$$$$############$$$$$$$$############....                            ",
"                                    ....########....####$$$$$$$$############$$$$$$$$############....                            ",
"                                    ....########....####$$$$$$$$############$$$$$$$$############....                            ",
"                                ....########$$$$....####$$$$$$$$$$$$$$$$$$$$$$$$$$$$$$$$$$$$$$$$....                            ",
"                                ....########$$$$....####$$$$$$$$$$$$$$$$$$$$$$$$$$$$$$$$$$$$$$$$....                            ",
"                                ....########$$$$....####$$$$$$$$$$$$$$$$$$$$$$$$$$$$$$$$$$$$$$$$....                            ",
"                                ....########$$$$....####$$$$$$$$$$$$$$$$$$$$$$$$$$$$$$$$$$$$$$$$....                            ",
"                                ....####$$$$$$$$....########%%%%$$$$%%%%$$$$%%%%$$$$%%%%$$$$%%%%....                            ",
"                                ....####$$$$$$$$....########%%%%$$$$%%%%$$$$%%%%$$$$%%%%$$$$%%%%....                            ",
"                                ....####$$$$$$$$....########%%%%$$$$%%%%$$$$%%%%$$$$%%%%$$$$%%%%....                            ",
"                                ....####$$$$$$$$....########%%%%$$$$%%%%$$$$%%%%$$$$%%%%$$$$%%%%....                            ",
"                            ....####$$$$$$$$$$$$........########$$$$$$$$$$$$$$$$$$$$$$$$$$$$$$$$....                            ",
"                            ....####$$$$$$$$$$$$........########$$$$$$$$$$$$$$$$$$$$$$$$$$$$$$$$....                            ",
"                            ....####$$$$$$$$$$$$........########$$$$$$$$$$$$$$$$$$$$$$$$$$$$$$$$....                            ",
"                            ....####$$$$$$$$$$$$........########$$$$$$$$$$$$$$$$$$$$$$$$$$$$$$$$....                            ",
"                            ....########$$$$$$$$####....####################################....                                ",
"                            ....########$$$$$$$$####....####################################....                                ",
"                            ....########$$$$$$$$####....####################################....                                ",
"                            ....########$$$$$$$$####....####################################....                                ",
"                            ....########$$$$$$$$####................................................                            ",
"                            ....########$$$$$$$$####................................................                            ",
"                            ....########$$$$$$$$####................................................                            ",
"                            ....########$$$$$$$$####................................................                            ",
"                            ....####$$$$$$$$$$$$$$$$$$$$$$$$$$$$$$$$$$$$%%%%$$$$$$$$$$$$$$$$$$$$....                            ",
"                            ....####$$$$$$$$$$$$$$$$$$$$$$$$$$$$$$$$$$$$%%%%$$$$$$$$$$$$$$$$$$$$....                            ",
"                            ....####$$$$$$$$$$$$$$$$$$$$$$$$$$$$$$$$$$$$%%%%$$$$$$$$$$$$$$$$$$$$....                            ",
"                            ....####$$$$$$$$$$$$$$$$$$$$$$$$$$$$$$$$$$$$%%%%$$$$$$$$$$$$$$$$$$$$....                            ",
"                            ....############$$$$$$$$$$$$$$$$$$$$$$$$$$$$$$$$$$$$$$$$$$$$$$$$$$$$....                            ",
"                            ....############$$$$$$$$$$$$$$$$$$$$$$$$$$$$$$$$$$$$$$$$$$$$$$$$$$$$....                            ",
"                            ....############$$$$$$$$$$$$$$$$$$$$$$$$$$$$$$$$$$$$$$$$$$$$$$$$$$$$....                            ",
"                            ....############$$$$$$$$$$$$$$$$$$$$$$$$$$$$$$$$$$$$$$$$$$$$$$$$$$$$....                            ",
"                                ................................................................                                ",
"                                ................................................................                                ",
"                                ................................................................                                ",
"                                ................................................................                                ",
"                                ....%%%%%%%%%%%%%%%%%%%%%%%%%%%%%%%%%%%%%%%%%%%%%%%%%%%%%%%%....                                ",
"                                ....%%%%%%%%%%%%%%%%%%%%%%%%%%%%%%%%%%%%%%%%%%%%%%%%%%%%%%%%....                                ",
"                                ....%%%%%%%%%%%%%%%%%%%%%%%%%%%%%%%%%%%%%%%%%%%%%%%%%%%%%%%%....                                ",
"                                ....%%%%%%%%%%%%%%%%%%%%%%%%%%%%%%%%%%%%%%%%%%%%%%%%%%%%%%%%....                                ",
"                                ................................................................                                ",
"                                ................................................................                                ",
"                                ................................................................                                ",
"                                ................................................................                                ",
"                                ....%%%%%%%%&&&&%%%%&&&&&&&&&&&&&&&&&&&&&&&&&&&&&&&&&&&&&&&&....                                ",
"                                ....%%%%%%%%&&&&%%%%&&&&&&&&&&&&&&&&&&&&&&&&&&&&&&&&&&&&&&&&....                                ",
"                                ....%%%%%%%%&&&&%%%%&&&&&&&&&&&&&&&&&&&&&&&&&&&&&&&&&&&&&&&&....                                ",
"                                ....%%%%%%%%&&&&%%%%&&&&&&&&&&&&&&&&&&&&&&&&&&&&&&&&&&&&&&&&....                                ",
"                                ....%%%%&&&&&&&&&&&&&&&&&&&&&&&&&&&&&&&&&&&&&&&&&&&&&&&&&&&&....                                ",
"                                ....%%%%&&&&&&&&&&&&&&&&&&&&&&&&&&&&&&&&&&&&&&&&&&&&&&&&&&&&....                                ",
"                                ....%%%%&&&&&&&&&&&&&&&&&&&&&&&&&&&&&&&&&&&&&&&&&&&&&&&&&&&&....                                ",
"                                ....%%%%&&&&&&&&&&&&&&&&&&&&&&&&&&&&&&&&&&&&&&&&&&&&&&&&&&&&....                                ",
"                                ....%%%%%%%%%%%%&&&&%%%%&&&&&&&&&&&&&&&&&&&&&&&&&&&&&&&&&&&&....                                ",
"                                ....%%%%%%%%%%%%&&&&%%%%&&&&&&&&&&&&&&&&&&&&&&&&&&&&&&&&&&&&....                                ",
"                                ....%%%%%%%%%%%%&&&&%%%%&&&&&&&&&&&&&&&&&&&&&&&&&&&&&&&&&&&&....                                ",
"                                ....%%%%%%%%%%%%&&&&%%%%&&&&&&&&&&&&&&&&&&&&&&&&&&&&&&&&&&&&....                                ",
"                        ............%%%%%%%%&&&&&&&&&&&&&&&&&&&&&&&&&&&&&&&&&&&&&&&&&&&&&&&&....                                ",
"                        ............%%%%%%%%&&&&&&&&&&&&&&&&&&&&&&&&&&&&&&&&&&&&&&&&&&&&&&&&....                                ",
"                        ............%%%%%%%%&&&&&&&&&&&&&&&&&&&&&&&&&&&&&&&&&&&&&&&&&&&&&&&&....                                ",
"                        ............%%%%%%%%&&&&&&&&&&&&&&&&&&&&&&&&&&&&&&&&&&&&&&&&&&&&&&&&....                                ",
"                        ....%%%%%%%%%%%%%%%%%%%%%%%%&&&&................&&&&&&&&&&&&&&&&&&&&....                                ",
"                        ....%%%%%%%%%%%%%%%%%%%%%%%%&&&&................&&&&&&&&&&&&&&&&&&&&....                                ",
"                        ....%%%%%%%%%%%%%%%%%%%%%%%%&&&&................&&&&&&&&&&&&&&&&&&&&....                                ",
"                        ....%%%%%%%%%%%%%%%%%%%%%%%%&&&&................&&&&&&&&&&&&&&&&&&&&....                                ",
"                        ....%%%%%%%%%%%%%%%%%%%%%%%%%%%%....            ....&&&&&&&&%%%%%%%%....                                ",
"                        ....%%%%%%%%%%%%%%%%%%%%%%%%%%%%....            ....&&&&&&&&%%%%%%%%....                                ",
"                        ....%%%%%%%%%%%%%%%%%%%%%%%%%%%%....            ....&&&&&&&&%%%%%%%%....                                ",
"                        ....%%%%%%%%%%%%%%%%%%%%%%%%%%%%....            ....&&&&&&&&%%%%%%%%....                                ",
"                        ....%%%%%%%%%%%%%%%%%%%%%%%%....                ....%%%%%%%%%%%%%%%%....                                ",
"                        ....%%%%%%%%%%%%%%%%%%%%%%%%....                ....%%%%%%%%%%%%%%%%....                                ",
"                        ....%%%%%%%%%%%%%%%%%%%%%%%%....                ....%%%%%%%%%%%%%%%%....                                ",
"                        ....%%%%%%%%%%%%%%%%%%%%%%%%....                ....%%%%%%%%%%%%%%%%....                                ",
"                        ............................                    ....%%%%%%%%%%%%%%%%....                                ",
"                        ............................                    ....%%%%%%%%%%%%%%%%....                                ",
"                        ............................                    ....%%%%%%%%%%%%%%%%....                                ",
"                        ............................                    ....%%%%%%%%%%%%%%%%....                                ",
"                                                                        ....%%%%%%%%%%%%%%%%....                                ",
"                                                                        ....%%%%%%%%%%%%%%%%....                                ",
"                                                                        ....%%%%%%%%%%%%%%%%....                                ",
"                                                                        ....%%%%%%%%%%%%%%%%....                                ",
"                                                                        ........................                                ",
"                                                                        ........................                                ",
"                                                                        ........................                                ",
"                                                                        ........................                                "};
