/* XPM */
static char * wall_mid_1_xpm[] = {
"16 16 8 1",
" 	c #775C55",
".	c #222222",
"+	c #483B3A",
"@	c #B6CBCF",
"#	c #5956BD",
"$	c #72D6CE",
"%	c #5698CC",
"&	c #38262D",
"  .      .   .  ",
"++.@#@+++@#@+.++",
"++..$#...##...++",
"....$%###%#.....",
" .  $%%%%%#     ",
"++++#%%%%%#+++++",
"++++$%%%%%+++.++",
"....$%%%%%#.....",
"    $%%%%%#   .&",
"+++++%%#%%#+++.+",
"+++.$%#.#%#+++.+",
"....$#...##.....",
"  . $.   .#     ",
"++.+.+++++.+++++",
"++.+++++.+.+.+++",
"................"};
