/* XPM */
static char * wall_side_top_l_xpm[] = {
"16 16 3 1",
" 	c None",
".	c #222222",
"+	c #AA8D7A",
"                ",
"                ",
"                ",
"                ",
"                ",
"                ",
"                ",
"                ",
"                ",
"                ",
"                ",
"                ",
"           .....",
"           .+++.",
"           .+++.",
"           .+++."};
