/* XPM */
static char * wall_side_front_right_xpm[] = {
"16 16 4 1",
" 	c None",
".	c #222222",
"+	c #775C55",
"@	c #483B3A",
".+++.           ",
".@@@.           ",
".@@@.           ",
".....           ",
"++++.           ",
"@@@@.           ",
"@@@@.           ",
".....           ",
"+.++.           ",
"@.@@.           ",
"@.@@.           ",
".....           ",
"++++.           ",
"@@@@.           ",
"@.@@.           ",
".....           "};
