/* XPM */
static char * wall_solo_front_xpm[] = {
"16 16 3 1",
" 	c #222222",
".	c #775C55",
"+	c #483B3A",
" .... .... .. . ",
" ++++ ++++ ++++ ",
" ++++ ++ + + ++ ",
"                ",
"  .. . .... ... ",
" +++ ++ +++ +++ ",
" +++ ++ +++ + + ",
"                ",
" . .... .. .... ",
" + ++++ ++ ++++ ",
" ++ +++ +++++++ ",
"                ",
" . .. .... .. . ",
"   ++ ++++ ++++ ",
" + +++++ + + ++ ",
"                "};
