/* XPM */
static char * wall_mid_6_xpm[] = {
"16 16 6 1",
" 	c #775C55",
".	c #222222",
"+	c #483B3A",
"@	c #417089",
"#	c #4BA747",
"$	c #97DA3F",
"  .      .   .  ",
"++.++++++.+++.++",
"++.++.+++.++..++",
"................",
"   ...@@.@..    ",
"++++.@##@#@.++++",
"+++..$#####..+++",
"......$###@.....",
"  .    $## .  ..",
"+++.+++$#@+.++.+",
"+++++.+$#@++++.+",
".......@#.......",
"  .     $ ..    ",
"++.+++++$+.+++++",
"++.+++++$@.+++.+",
"......$###@@...."};
