/* XPM */
static char * wall_mid_61_xpm[] = {
"16 16 7 1",
" 	c #222222",
".	c #417089",
"+	c #3FA9DA",
"@	c #5698CC",
"#	c #3F94C4",
"$	c #483B3A",
"%	c #775C55",
"   . +@@##@@@   ",
" $$$$$$@@@$$$$$%",
"$$$$$$$$$$$$$$$%",
"$$$$$$$$$$$$$$$%",
" $$$$$$$$$$$$$$%",
"$$$$$$$$$$$$$$$%",
" $$$$$$$$$$$$$$$",
" $$$$$$$$$$$$$$%",
" $$$$$$$$$$$$$$$",
"$$$$$$$$$$$$$$$$",
"$$$$$$$$$$$$$$$%",
" $$$$$$$$$$$$$$$",
" $$$$$$$$$$$$$$$",
" $$$$$$$$$$$$$$%",
" $$$$$$$$$$$$$$%",
"%%%$$%$%%%%$%%%%"};
