/* XPM */
static char * wall_mid_52_xpm[] = {
"16 16 5 1",
" 	c #222222",
".	c #21141B",
"+	c #483B3A",
"@	c #775C55",
"#	c #23151D",
" .+ .+@@@@+. +# ",
"  #+@#....#@+. @",
"++ ##@@@@@@## +@",
"+  + #....# ++ @",
" ++ ++++ +++ ++@",
"+++++++++ +++++@",
" +++++++++++++++",
" ++++++++++++++@",
" +++++++++++++++",
"++++++++++++++++",
"+++++++++++++++@",
" +++++++++++++++",
" +++++++++++++++",
" ++++++++++++++@",
" ++++++++++++++@",
"@@@++@+@@@@+@@@@"};
