/* XPM */
static char * wall_corner_left_xpm[] = {
"16 16 5 1",
" 	c #222222",
".	c #AA8D7A",
"+	c #775C55",
"@	c #483B3A",
"#	c #D3BFA9",
" ... +++++ +++++",
" ... @@@@@ @@@@@",
" ### @@ @@ @@@@@",
"                ",
" ... ++++ + ++ +",
" ... @@@ @@ @@@@",
" ... @@@ @@ @@@@",
" ...            ",
" ...  ++ ++++ ++",
" ###  @@ @@@@ @@",
"     @@@ @@@ @@@",
" ...            ",
" ...  ++++ ++ ++",
" ...  @@@@ @@  @",
" ...  @ @@@@@ @@",
" ...            "};
