/* XPM */
static char * wall_top_solo_bottom_xpm[] = {
"16 16 5 1",
" 	c None",
".	c #222222",
"+	c #AA8D7A",
"@	c #483B3A",
"#	c #D3BFA9",
"                ",
"                ",
"                ",
"                ",
"                ",
"                ",
"                ",
"                ",
"                ",
"                ",
"                ",
"                ",
".+++........+++.",
".+++++.+++++@++.",
".+++++.++++++++.",
".#####.#@######."};
